# xmcd
#
# Track frame offsets: 
#        150
#        13237
#        26999
#        43461
#        65774
#        83886
#        104804
#        116595
#        129982
#        145023
#        159295
#        176056
#        194928
#        209416
#        223516
#        237659
#        254157
#        266494
#
# Disc length: 3800 seconds
#
# Revision: 2
# Processed by: cddbd v1.5.2PL0 Copyright (c) Steve Scherf et al.
# Submitted via: ExactAudioCopy v0.99pb5
#
DISCID=280ed612
DTITLE=Various Artist - 201003 PO Country Radio
DYEAR=2010
DGENRE=Country
TTITLE0=Luke Bryan - Rain Is A Good Thing
TTITLE1=Jack Ingram - Free
TTITLE2=Martina McBride - Wrong Baby Wrong
TTITLE3=David Nail - Turning Home
TTITLE4=Craig Morgan - This Ain't Nothin'
TTITLE5=Jo Dee Messina - That's God
TTITLE6=Matt Stillwell - Dirt Road Dancing
TTITLE7=Jewel - Stay Here Forever
TTITLE8=Sammy Kershaw - Better Than I Used To Be
TTITLE9=Reba McEntire - I Keep On Lovin' You
TTITLE10=Lynyrd Skynyrd - That Ain't My America
TTITLE11=The Harters - Jenny
TTITLE12=Marty Raybon - Daddy Phone
TTITLE13=Margaret Durante - Use Somebody
TTITLE14=Katie Arminger - Kiss Me Now
TTITLE15=Suzi Ragsdale f Rodney Crowell - Troublemaker
TTITLE16=Kate Russell - Kick Down The Door
TTITLE17=Miranda Lambert - White Liar (Acoustic Version)
EXTD=
EXTT0=
EXTT1=
EXTT2=
EXTT3=
EXTT4=
EXTT5=
EXTT6=
EXTT7=
EXTT8=
EXTT9=
EXTT10=
EXTT11=
EXTT12=
EXTT13=
EXTT14=
EXTT15=
EXTT16=
EXTT17=
PLAYORDER=
